<?xml version="1.0" standalone="no"?>
<!DOCTYPE svg PUBLIC "-//W3C//DTD SVG 20010904//EN"
 "http://www.w3.org/TR/2001/REC-SVG-20010904/DTD/svg10.dtd">
<svg version="1.0" xmlns="http://www.w3.org/2000/svg"
 width="572.000000pt" height="162.000000pt" viewBox="0 0 572.000000 162.000000"
 preserveAspectRatio="xMidYMid meet">

<g transform="translate(0.000000,162.000000) scale(0.100000,-0.100000)"
fill="#000000" stroke="none">
<path d="M0 810 l0 -810 2860 0 2860 0 0 810 0 810 -2860 0 -2860 0 0 -810z
m1076 459 c31 -15 48 -32 63 -63 20 -40 21 -60 21 -366 0 -306 -1 -326 -21
-366 -15 -31 -32 -48 -63 -63 -38 -19 -61 -21 -229 -21 l-187 0 0 -32 c0 -34
-24 -68 -48 -68 -27 0 -52 32 -52 65 l0 33 -70 4 c-60 3 -74 8 -98 31 l-27 27
0 389 c0 375 1 390 20 411 11 12 29 26 40 31 11 4 152 8 314 8 278 1 297 0
337 -20z m3934 -224 l0 -215 23 0 c18 0 39 23 92 100 l70 100 68 0 68 0 -30
-42 c-16 -24 -56 -79 -89 -123 l-60 -80 32 -45 c49 -67 151 -213 160 -227 5
-10 -9 -13 -61 -13 l-68 1 -79 114 c-63 92 -83 115 -102 115 -24 0 -24 -1 -24
-115 l0 -115 -60 0 -60 0 0 380 0 380 60 0 60 0 0 -215z m-3458 -142 l3 -308
168 -3 167 -2 0 -45 0 -45 -225 0 -225 0 0 355 0 355 55 0 55 0 2 -307z m1953
277 c58 -29 91 -74 100 -134 9 -57 -17 -120 -62 -151 l-35 -23 31 -7 c39 -8
98 -74 107 -119 9 -51 -3 -119 -29 -157 -12 -18 -44 -44 -72 -58 -47 -25 -59
-26 -232 -29 l-183 -4 0 357 0 357 163 -3 c149 -4 166 -6 212 -29z m-1200
-168 c52 -26 79 -56 106 -116 30 -69 30 -193 -1 -265 -82 -190 -363 -185 -437
8 -27 69 -24 202 5 261 28 58 76 105 127 125 53 20 149 14 200 -13z m493 13
c20 -9 47 -26 59 -37 l23 -21 0 20 c0 43 10 53 56 53 l44 0 0 -300 c0 -317 -2
-330 -49 -384 -51 -58 -184 -81 -286 -49 -64 21 -65 24 -50 90 5 20 6 21 52 7
59 -18 124 -18 167 0 36 15 56 54 56 112 l0 33 -36 -24 c-94 -64 -214 -36
-271 63 -24 41 -28 60 -31 148 -6 157 31 244 123 285 49 23 94 24 143 4z
m1287 -13 c52 -26 79 -56 106 -116 30 -69 30 -193 -1 -265 -82 -190 -363 -185
-437 8 -27 69 -24 202 5 261 28 58 76 105 127 125 53 20 149 14 200 -13z m570
0 c52 -26 79 -56 106 -116 30 -69 30 -193 -1 -265 -82 -190 -363 -185 -437 8
-27 69 -24 202 5 261 28 58 76 105 127 125 53 20 149 14 200 -13z"/>
<path d="M460 840 l0 -350 50 0 50 0 0 350 0 350 -50 0 -50 0 0 -350z"/>
<path d="M660 840 l0 -350 184 0 c154 0 187 3 200 16 14 13 16 58 16 334 0
276 -2 321 -16 334 -13 13 -46 16 -200 16 l-184 0 0 -350z m282 233 c22 -20
23 -41 1 -65 -12 -14 -31 -18 -81 -18 -91 0 -127 35 -85 82 22 25 138 26 165
1z m0 -200 c22 -20 23 -41 1 -65 -12 -14 -31 -18 -81 -18 -91 0 -127 35 -85
82 22 25 138 26 165 1z"/>
<path d="M3247 1113 c-4 -3 -7 -51 -7 -105 l0 -98 80 0 c126 0 170 27 170 104
0 46 -34 84 -85 96 -47 11 -149 13 -158 3z"/>
<path d="M3242 708 l3 -113 60 -3 c159 -9 225 24 225 113 0 40 -5 52 -34 81
l-34 34 -111 0 -112 0 3 -112z"/>
<path d="M2163 943 c-32 -6 -71 -50 -83 -92 -13 -46 -13 -126 0 -172 30 -109
158 -126 215 -29 27 47 28 179 2 227 -27 51 -80 77 -134 66z"/>
<path d="M2735 943 c-27 -7 -54 -32 -73 -68 -25 -47 -23 -190 4 -235 36 -63
124 -72 181 -18 22 20 23 29 23 141 0 118 0 119 -29 148 -16 16 -36 29 -44 29
-9 0 -21 2 -29 4 -7 2 -22 1 -33 -1z"/>
<path d="M3943 943 c-12 -2 -33 -16 -47 -30 -62 -62 -62 -234 -1 -296 53 -53
139 -37 180 33 27 47 28 179 2 227 -27 51 -80 77 -134 66z"/>
<path d="M4513 943 c-12 -2 -33 -16 -47 -30 -62 -62 -62 -234 -1 -296 53 -53
139 -37 180 33 27 47 28 179 2 227 -27 51 -80 77 -134 66z"/>
</g>
</svg>
